<svg width="352" height="150" viewBox="0 0 352 150" fill="none" xmlns="http://www.w3.org/2000/svg">
<rect x="30" y="25" width="100" height="100" rx="5" fill="white"/>
<rect x="35" y="30" width="45" height="45" rx="5" fill="#222831"/>
<rect x="35" y="80" width="45" height="40" rx="5" fill="#76ABAE"/>
<rect x="85" y="30" width="38" height="27" rx="5" fill="#0D0D0D"/>
<rect x="85" y="62" width="38" height="58" rx="5" fill="#31363F"/>
<path d="M140.575 72.35V36.05L143.325 33.52L174.895 35.225L176.655 39.46L164.115 54.255L174.95 67.345L173.245 71.58L143.49 74.935L140.575 72.35ZM145.745 69.435L167.965 66.96L158.725 55.85L158.78 52.55L169.395 40.12L145.745 38.8V69.435ZM181.747 70.7L179.657 67.785L182.297 48.205L184.607 46.005L200.722 44.685L203.252 46.06L207.927 55.3L206.112 58.985L189.007 62.56L187.907 57.555L201.712 54.585L199.402 50.02L187.082 50.955L185.102 66.08L204.022 69.6L203.032 74.66L181.747 70.7ZM230.544 53.1L218.829 54.97L216.409 71.195L211.239 70.425L213.989 52.33L216.134 50.13L232.634 47.545L235.659 49.965L236.704 71.58L231.479 71.855L230.544 53.1ZM256.42 67.235L267.2 70.315L265.825 75.265L252.9 71.635L251.03 68.885L252.405 54.09L241.57 54.86L241.13 49.635L252.9 48.81L253.45 43.035L258.62 43.53L258.18 48.48L270.555 47.6L270.885 52.715L257.685 53.705L256.42 67.235ZM278.233 71.03L275.813 68.225L277.133 49.36L279.608 46.995L297.868 46.225L300.563 48.755L301.113 69.545L298.363 72.185L278.233 71.03ZM295.888 66.85L295.503 51.505L282.138 52.055L281.203 66.025L295.888 66.85ZM139.75 115.58L142.28 80.545L145.03 78.125L174.895 80.105L174.565 85.275L147.34 83.515L145.195 113.05L171.375 111.73L170.44 101.775L155.095 101.115L155.315 95.89L172.915 96.715L175.39 99.025L176.82 113.93L174.4 116.79L142.5 118.33L139.75 115.58ZM184.111 114.7L182.021 111.785L184.661 92.205L186.971 90.005L203.086 88.685L205.616 90.06L210.291 99.3L208.476 102.985L191.371 106.56L190.271 101.555L204.076 98.585L201.766 94.02L189.446 94.955L187.466 110.08L206.386 113.6L205.396 118.66L184.111 114.7ZM232.908 97.1L221.193 98.97L218.773 115.195L213.603 114.425L216.353 96.33L218.498 94.13L234.998 91.545L238.023 93.965L239.068 115.58L233.843 115.855L232.908 97.1Z" fill="black"/>
</svg>
